HIERARCHY
ROOT hip
{
	OFFSET 0.000000 0.000000 0.000000 
	CHANNELS 6 Xposition Yposition Zposition Xrotation Zrotation Yrotation
	JOINT abdomen
	{
		OFFSET 0.000000 3.402643 0.000000 
		CHANNELS 3 Xrotation Zrotation Yrotation
		JOINT chest
		{
			OFFSET 0.000000 8.438565 -0.680529 
			CHANNELS 3 Xrotation Zrotation Yrotation
			JOINT neck
			{
				OFFSET 0.000000 10.207942 -0.272212 
				CHANNELS 3 Xrotation Zrotation Yrotation
				JOINT head
				{
					OFFSET 0.000000 3.130431 0.000000 
					CHANNELS 3 Xrotation Zrotation Yrotation
					End Site
					{
						OFFSET 0.000000 3.130435 0.000000 
					}
				}
			}
			JOINT lCollar
			{
				OFFSET 3.470700 6.669187 -0.816635 
				CHANNELS 3 Yrotation Zrotation Xrotation
				JOINT lShldr
				{
					OFFSET 3.198488 0.000000 0.000000 
					CHANNELS 3 Zrotation Yrotation Xrotation
					JOINT lForeArm
					{
						OFFSET 10.139888 0.000000 0.000000 
						CHANNELS 3 Yrotation Zrotation Xrotation
						JOINT lHand
						{
							OFFSET 8.370511 0.000000 0.000000 
							CHANNELS 3 Zrotation Yrotation Xrotation
							End Site
							{
								OFFSET 4.083176 0.000000 0.000000 
							}
						}
					}
				}
			}
			JOINT rCollar
			{
				OFFSET -3.470700 6.669187 -0.816635 
				CHANNELS 3 Yrotation Zrotation Xrotation
				JOINT rShldr
				{
					OFFSET -3.198488 0.000000 0.000000 
					CHANNELS 3 Zrotation Yrotation Xrotation
					JOINT rForeArm
					{
						OFFSET -10.139888 0.000000 0.000000 
						CHANNELS 3 Yrotation Zrotation Xrotation
						JOINT rHand
						{
							OFFSET -8.370511 0.000000 0.000000 
							CHANNELS 3 Zrotation Yrotation Xrotation
							End Site
							{
								OFFSET -4.083176 0.000000 0.000000 
							}
						}
					}
				}
			}
		}
	}
	JOINT lThigh
	{
		OFFSET 5.308129 -1.633274 1.361059 
		CHANNELS 3 Xrotation Zrotation Yrotation
		JOINT lShin
		{
			OFFSET -2.041588 -20.007561 0.000000 
			CHANNELS 3 Xrotation Zrotation Yrotation
			JOINT lFoot
			{
				OFFSET 0.000000 -19.190928 -1.224953 
				CHANNELS 3 Xrotation Yrotation Zrotation
				End Site
				{
					OFFSET 0.000000 -2.449906 4.627600 
				}
			}
		}
	}
	JOINT rThigh
	{
		OFFSET -5.308129 -1.633274 1.361059 
		CHANNELS 3 Xrotation Zrotation Yrotation
		JOINT rShin
		{
			OFFSET 2.041588 -20.007561 0.000000 
			CHANNELS 3 Xrotation Zrotation Yrotation
			JOINT rFoot
			{
				OFFSET 0.000000 -19.190928 -1.224953 
				CHANNELS 3 Xrotation Yrotation Zrotation
				End Site
				{
					OFFSET 0.000000 -2.449906 4.627600 
				}
			}
		}
	}
}
MOTION
Frames: 8
Frame Time: 0.033333
-0.478770 51.810143 1.805506 3.505859 6.298828 -51.112209 18.310549 -12.480469 -3.361485 -19.296875 13.115233 7.189715 51.552734 8.066406 2.608792 -65.830070 3.671875 -2.811875 1.992188 -2.001953 0.000341 -72.919922 27.324219 -13.940828 -134.130859 1.933594 -2.490564 -65.859375 3.789063 -15.820312 -2.001953 1.992188 0.000000 92.099609 -26.787109 4.946772 52.353516 1.679688 -1.660443 7.851563 -55.419918 0.734148 -17.846478 2.916830 19.140892 12.247975 -5.662656 -1.564684 3.870507 16.182180 -0.161555 14.579345 -8.848037 -22.747898 19.069912 4.895542 2.131691 -1.635000 -23.011763 -5.222476 
-1.008673 52.043671 3.684248 2.998047 5.966797 -50.302731 18.564455 -11.982422 -2.834059 -19.882813 12.099609 7.072360 51.552734 8.066406 2.608792 -65.195313 2.451172 -2.284739 1.992188 -2.001953 0.000341 -72.783195 27.529299 -13.511108 -134.130859 1.933594 -2.490564 -65.800781 3.476563 -15.731832 -2.001953 1.992188 0.000000 90.859375 -27.685547 7.612651 52.539063 1.650391 -1.826172 10.468750 -54.677734 -1.298828 -14.974013 0.944260 19.418447 11.924955 -5.684344 -1.538218 1.878507 16.126434 1.502370 11.910599 -11.570797 -23.258179 25.920061 4.516165 2.515354 7.382067 -25.226517 -3.993702 
-1.479713 52.209400 5.280094 2.460938 5.791016 -49.666985 18.867188 -11.308593 -2.597656 -20.468750 11.260138 6.806861 51.552734 8.066406 2.608792 -64.921867 1.572266 -2.255591 1.992188 -2.001953 0.000341 -72.734375 27.597654 -13.339845 -134.130859 1.933594 -2.490564 -65.878906 3.417969 -15.429106 -2.001953 1.992188 0.000000 91.025391 -28.076174 8.100872 52.919922 1.337891 -2.021712 11.337892 -53.750004 -2.000063 -12.321488 -0.606596 19.365219 11.046551 -5.654880 -1.429314 0.861844 16.466892 2.123374 9.206461 -14.148527 -23.464746 32.281193 4.243139 2.942269 16.584600 -27.272068 -1.665888 
-1.986707 52.382675 6.497303 1.757813 5.429688 -49.042042 19.384766 -10.732422 -2.587890 -20.820313 10.947265 6.691307 51.552734 8.066406 2.608792 -64.970703 0.888672 -2.421875 1.992188 -2.001953 0.000341 -72.744141 27.578125 -13.369140 -134.130859 1.933594 -2.490564 -66.054688 3.779297 -15.331388 -2.001953 1.992188 0.000000 91.953125 -27.851563 5.625000 53.066406 1.650391 -1.972938 10.156251 -53.613281 -1.736377 -9.700139 -1.944850 18.734222 9.640841 -5.850044 -1.357858 0.618459 15.912678 1.751405 6.139543 -16.032324 -23.948679 37.547451 3.911197 3.235919 22.810484 -29.126236 0.060741 
-2.437334 52.480606 7.560171 1.406250 5.087891 -48.203125 20.156250 -10.136718 -2.950937 -20.996094 11.269531 6.535111 51.552734 8.066406 2.608792 -65.527336 0.605469 -3.222553 1.992188 -2.001953 0.000341 -72.734375 27.597654 -13.339845 -134.130859 1.933594 -2.490564 -65.996094 4.511719 -14.882813 -2.001953 1.992188 0.000000 92.939453 -27.041016 2.808061 53.095703 1.337891 -2.021713 7.548829 -54.130859 -0.535257 -7.304885 -2.540770 18.135710 8.745412 -6.239559 -1.241791 0.015314 15.414497 1.229071 2.890174 -16.865265 -24.438141 41.934532 3.458597 3.483671 24.937967 -30.236513 1.632823 
-2.770565 52.533340 8.598237 1.044922 4.726563 -47.186691 20.732422 -9.541017 -3.281250 -21.162107 11.816405 6.408249 51.552734 8.066406 2.608792 -66.269531 0.136719 -3.818360 1.992188 -2.001953 0.000341 -72.734375 27.597654 -13.339845 -134.130859 1.933594 -2.490564 -66.064453 5.000000 -14.921024 -2.001953 1.992188 0.000000 93.759766 -26.250000 -0.463302 53.251953 1.533203 -1.923828 4.882813 -54.355469 0.802612 -5.194948 -3.612815 17.406189 7.884565 -5.925153 -1.117151 -0.323002 14.298740 0.152047 -0.578311 -16.898994 -25.044619 44.616280 3.862136 3.741491 23.167513 -31.500774 1.962912 
-3.039308 52.638805 9.582110 0.703125 4.199219 -45.839844 21.542969 -8.789063 -3.945312 -21.308594 12.695313 6.310740 51.552734 8.066406 2.608792 -67.011719 -0.302734 -4.570364 1.992188 -2.001953 0.000341 -72.802734 27.480469 -13.589245 -134.130859 1.933594 -2.490564 -66.054688 5.878906 -14.598607 -2.001953 1.992188 0.000000 94.394531 -25.244141 -3.978773 53.066406 1.650391 -1.816688 2.216797 -54.189453 2.472549 -3.334216 -4.430562 15.041977 6.473514 -6.329176 -1.034652 -0.132168 15.535265 -0.200809 -3.692860 -16.596325 -25.811152 45.820572 3.773881 3.999895 20.881145 -31.456423 2.392360 
-3.278021 52.744278 10.458740 1.230469 3.505860 -43.193363 22.324217 -8.271484 -4.492188 -21.455076 13.574219 6.213229 51.552734 8.066406 2.608792 -67.744141 -0.566406 -5.332137 1.992188 -2.001953 0.000341 -72.802734 27.480469 -13.589245 -134.130859 1.933594 -2.490564 -66.328125 6.142578 -14.823174 -2.001953 1.992188 0.000000 94.472656 -24.219034 -5.976653 53.251953 1.533203 -1.923828 0.546875 -54.023438 3.281250 -2.280127 -4.185627 12.885766 6.984595 -6.343132 -1.044634 -0.138958 15.144512 -0.162042 -6.094147 -15.504658 -26.341808 44.428394 3.891246 3.727717 17.982912 -30.132496 1.309049 
